HIERARCHY
ROOT hip
{
	OFFSET 0.000000 0.000000 0.000000 
	CHANNELS 6 Xposition Yposition Zposition Xrotation Zrotation Yrotation
	JOINT abdomen
	{
		OFFSET 0.000000 3.402643 0.000000 
		CHANNELS 3 Xrotation Zrotation Yrotation
		JOINT chest
		{
			OFFSET 0.000000 8.438565 -0.680529 
			CHANNELS 3 Xrotation Zrotation Yrotation
			JOINT neck
			{
				OFFSET 0.000000 10.207942 -0.272212 
				CHANNELS 3 Xrotation Zrotation Yrotation
				JOINT head
				{
					OFFSET 0.000000 3.130431 0.000000 
					CHANNELS 3 Xrotation Zrotation Yrotation
					End Site
					{
						OFFSET 0.000000 3.130435 0.000000 
					}
				}
			}
			JOINT lCollar
			{
				OFFSET 3.470700 6.669187 -0.816635 
				CHANNELS 3 Yrotation Zrotation Xrotation
				JOINT lShldr
				{
					OFFSET 3.198488 0.000000 0.000000 
					CHANNELS 3 Zrotation Yrotation Xrotation
					JOINT lForeArm
					{
						OFFSET 10.139888 0.000000 0.000000 
						CHANNELS 3 Yrotation Zrotation Xrotation
						JOINT lHand
						{
							OFFSET 8.370511 0.000000 0.000000 
							CHANNELS 3 Zrotation Yrotation Xrotation
							End Site
							{
								OFFSET 4.083176 0.000000 0.000000 
							}
						}
					}
				}
			}
			JOINT rCollar
			{
				OFFSET -3.470700 6.669187 -0.816635 
				CHANNELS 3 Yrotation Zrotation Xrotation
				JOINT rShldr
				{
					OFFSET -3.198488 0.000000 0.000000 
					CHANNELS 3 Zrotation Yrotation Xrotation
					JOINT rForeArm
					{
						OFFSET -10.139888 0.000000 0.000000 
						CHANNELS 3 Yrotation Zrotation Xrotation
						JOINT rHand
						{
							OFFSET -8.370511 0.000000 0.000000 
							CHANNELS 3 Zrotation Yrotation Xrotation
							End Site
							{
								OFFSET -4.083176 0.000000 0.000000 
							}
						}
					}
				}
			}
		}
	}
	JOINT lThigh
	{
		OFFSET 5.308129 -1.633274 1.361059 
		CHANNELS 3 Xrotation Zrotation Yrotation
		JOINT lShin
		{
			OFFSET -2.041588 -20.007561 0.000000 
			CHANNELS 3 Xrotation Zrotation Yrotation
			JOINT lFoot
			{
				OFFSET 0.000000 -19.190928 -1.224953 
				CHANNELS 3 Xrotation Yrotation Zrotation
				End Site
				{
					OFFSET 0.000000 -2.449906 4.627600 
				}
			}
		}
	}
	JOINT rThigh
	{
		OFFSET -5.308129 -1.633274 1.361059 
		CHANNELS 3 Xrotation Zrotation Yrotation
		JOINT rShin
		{
			OFFSET 2.041588 -20.007561 0.000000 
			CHANNELS 3 Xrotation Zrotation Yrotation
			JOINT rFoot
			{
				OFFSET 0.000000 -19.190928 -1.224953 
				CHANNELS 3 Xrotation Yrotation Zrotation
				End Site
				{
					OFFSET 0.000000 -2.449906 4.627600 
				}
			}
		}
	}
}
MOTION
Frames: 11
Frame Time: 0.033333
0.334508 0.980133 0.334508 0.000000 0.000000 0.000000 13.126194 7.456623 -29.143812 -14.676777 1.029734 -9.952028 17.220001 5.557821 -18.454390 10.524219 0.508720 -0.030344 -31.770109 -6.617861 -25.000000 -49.689068 6.913610 -5.386008 -93.717369 -3.198189 0.863392 42.849689 -4.433684 -70.907097 19.645372 -5.144575 -22.545996 68.904366 -6.997643 27.263395 96.819778 3.199443 0.778308 15.471019 40.660397 46.902481 -17.502443 7.818856 1.416718 22.003595 -1.289564 -2.843298 -3.094655 13.919754 -5.713723 3.159320 -11.369466 -21.440516 18.028410 1.411670 2.563276 -16.220249 -5.765698 9.647935 
0.334508 0.980133 0.334508 0.000000 0.000000 0.000000 13.364709 7.589240 -29.114239 -14.676777 1.029734 -9.952028 17.312126 5.234038 -17.446745 10.524219 0.508720 -0.030344 -30.716583 -6.626140 -25.000000 -48.018757 3.237741 -5.510290 -88.616951 -3.188692 1.000710 42.198162 -5.390295 -73.008675 20.699974 -5.156111 -22.544592 70.124107 -4.376564 25.907887 93.874130 3.202029 0.854853 15.471019 40.660397 46.902481 -17.541103 7.779516 1.420348 21.954359 -1.289706 -2.850577 -3.015129 13.927684 -5.675948 3.064324 -11.422703 -21.431782 18.097282 1.411557 2.557026 -16.181776 -5.750656 9.667171 
0.334508 0.980133 0.334508 0.000000 0.000000 0.000000 13.753478 7.805522 -29.058556 -14.676777 1.029734 -9.952028 17.465290 4.686523 -15.739193 10.524219 0.508720 -0.030344 -28.930025 -6.641143 -25.000000 -45.367374 -3.299281 -5.802616 -79.402100 -3.135508 1.255743 40.954296 -7.261738 -76.939644 22.487722 -5.167210 -22.534267 71.915001 0.159956 23.788107 88.903023 3.188587 0.996776 15.471019 40.660397 46.902481 -17.597132 7.724382 1.426554 21.847538 -1.289594 -2.825687 -2.881787 13.925666 -5.604512 2.909965 -11.504002 -21.403589 18.213739 1.420488 2.574018 -16.130697 -5.766305 9.682400 
0.334508 0.980133 0.334508 0.000000 0.000000 0.000000 14.121093 8.005069 -29.014431 -14.676777 1.029734 -9.952028 17.593771 4.175347 -14.165650 10.524219 0.508720 -0.030344 -27.280037 -6.657469 -25.000000 -43.016209 -9.823775 -6.181143 -70.012787 -3.039833 1.498774 39.879704 -9.582164 -80.640366 24.138926 -5.178101 -22.522097 73.281609 4.455193 21.965422 84.308434 3.165229 1.122661 15.471019 40.660397 46.902481 -17.654514 7.665379 1.432014 21.759542 -1.302905 -2.804079 -2.757002 13.936271 -5.550074 2.772294 -11.570451 -21.394506 18.303518 1.401830 2.566160 -16.063189 -5.745213 9.706502 
0.334508 0.980133 0.334508 0.000000 0.000000 0.000000 14.429920 8.175179 -28.971706 -14.676777 1.029734 -9.952028 17.683363 3.744618 -12.834422 10.524219 0.508720 -0.030344 -25.884439 -6.663569 -25.000000 -41.080692 -15.816834 -6.574551 -61.147385 -2.917556 1.715335 39.085098 -12.115654 -83.879639 25.535292 -5.186352 -22.520855 74.238213 8.153985 20.503973 80.417213 3.139569 1.236264 15.471019 40.660397 46.902481 -17.687239 7.613559 1.436067 21.680820 -1.299390 -2.818969 -2.644063 13.923737 -5.504586 2.643869 -11.626202 -21.364943 18.381109 1.401897 2.589617 -15.992967 -5.755410 9.724009 
0.334508 0.980133 0.334508 0.000000 0.000000 0.000000 14.689476 8.316136 -28.932995 -14.676777 1.029734 -9.952028 17.752443 3.372911 -11.700538 10.524219 0.508720 -0.030344 -24.693867 -6.671724 -25.000000 -39.394295 -21.445208 -7.017132 -52.570114 -2.766221 1.905664 38.575356 -14.805512 -86.836388 26.726763 -5.195580 -22.517778 74.920601 11.348653 19.281635 77.091125 3.108684 1.322576 15.471019 40.660397 46.902481 -17.733292 7.577833 1.450287 21.612545 -1.302912 -2.806387 -2.553223 13.936874 -5.455111 2.537333 -11.676669 -21.355186 18.449612 1.401979 2.593122 -15.953864 -5.748188 9.739798 
0.334508 0.980133 0.334508 0.000000 0.000000 0.000000 14.899602 8.428104 -28.900476 -14.676777 1.029734 -9.952028 17.801292 3.081417 -10.828840 10.524219 0.508720 -0.030344 -23.776697 -6.682437 -25.000000 -38.027580 -26.231709 -7.446830 -45.037506 -2.608959 2.054631 38.338451 -17.347923 -89.322052 27.645002 -5.206224 -22.512571 75.354950 13.842758 18.366392 74.520523 3.089530 1.393340 15.471019 40.660397 46.902481 -17.747564 7.546113 1.442834 21.563478 -1.312640 -2.795838 -2.482192 13.951710 -5.424127 2.458832 -11.714914 -21.335691 18.498896 1.401843 2.585869 -15.924360 -5.745820 9.741914 
0.356717 -0.052583 0.356717 0.000000 0.000000 0.000000 24.566622 11.353989 -7.078140 -0.106304 -0.585486 7.486454 29.358677 -12.400084 6.374710 10.524219 0.508720 -0.030344 9.681928 -11.604858 9.188313 36.342426 -80.477158 -60.925907 -63.977322 -2.957594 1.652844 35.032703 10.588747 -54.919262 13.658652 -0.717628 9.610873 56.179592 65.449013 -37.771709 63.141041 2.942616 1.669585 77.656387 41.529533 114.219666 -80.129082 19.615589 10.224862 101.681557 3.786500 -4.323724 -20.440683 -2.606951 4.780345 19.263237 -15.789321 -15.932998 107.649567 -4.210279 4.099323 -45.929409 7.252561 -4.360088 
0.356717 2.079483 0.356717 0.000000 0.000000 0.000000 24.566622 11.353989 -7.078140 -0.106304 -0.585486 7.486454 29.358677 -12.400084 6.374710 10.524219 0.508720 -0.030344 9.681928 -11.604858 9.188313 36.342426 -80.477158 -60.925907 -63.977322 -2.957594 1.652844 35.032703 10.588747 -54.919262 13.658652 -0.717628 9.610873 56.179592 65.449013 -37.771709 63.141041 2.942616 1.669585 77.656387 41.529533 114.219666 -72.283661 17.773157 9.359574 102.667015 3.844990 -4.320895 -30.181267 -0.875208 2.671570 8.998085 -16.273540 -16.312283 114.795753 -4.639329 3.818410 -24.497824 6.142780 -11.701348 
0.356717 3.972803 0.356717 0.000000 0.000000 0.000000 24.566622 11.353989 -7.078140 -0.106304 -0.585486 7.486454 29.358677 -12.400084 6.374710 10.524219 0.508720 -0.030344 9.681928 -11.604858 9.188313 36.342426 -80.477158 -60.925907 -63.977322 -2.957594 1.652844 35.032703 10.588747 -54.919262 13.658652 -0.717628 9.610873 56.179592 65.449013 -37.771709 63.141041 2.942616 1.669585 77.656387 41.529533 114.219666 -64.525635 15.827852 8.076840 103.721413 3.932378 -4.280902 -40.934799 1.511046 0.850035 -1.280531 -16.810411 -16.587654 121.938408 -5.039660 3.499207 -3.399726 1.777944 -17.090437 
0.356717 5.283149 0.356717 0.000000 0.000000 0.000000 24.566622 11.353989 -7.078140 -0.106304 -0.585486 7.486454 29.358677 -12.400084 6.374710 10.524219 0.508720 -0.030344 9.681928 -11.604858 9.188313 36.342426 -80.477158 -60.925907 -63.977322 -2.957594 1.652844 35.032703 10.588747 -54.919262 13.658652 -0.717628 9.610873 56.179592 65.449013 -37.771709 63.141041 2.942616 1.669585 77.656387 41.529533 114.219666 -56.781994 14.060695 6.532877 104.766190 3.991098 -4.263294 -51.616688 4.268558 -0.489780 -12.792115 -17.868254 -18.055126 125.022736 -5.185041 3.351552 7.135161 -2.021949 -19.426134 
